<svg width="120" height="120" viewBox="0 0 120 120" fill="none" xmlns="http://www.w3.org/2000/svg">
  <defs>
    <linearGradient id="goldGradient" x1="0%" y1="0%" x2="100%" y2="100%">
      <stop offset="0%" style="stop-color:#FFD700;stop-opacity:1" />
      <stop offset="25%" style="stop-color:#FFA500;stop-opacity:1" />
      <stop offset="50%" style="stop-color:#FF8C00;stop-opacity:1" />
      <stop offset="75%" style="stop-color:#FF6347;stop-opacity:1" />
      <stop offset="100%" style="stop-color:#DC143C;stop-opacity:1" />
    </linearGradient>
    <linearGradient id="innerGradient" x1="0%" y1="0%" x2="100%" y2="100%">
      <stop offset="0%" style="stop-color:#FFFF99;stop-opacity:0.8" />
      <stop offset="100%" style="stop-color:#FFD700;stop-opacity:0.3" />
    </linearGradient>
    <filter id="glow">
      <feGaussianBlur stdDeviation="3" result="coloredBlur"/>
      <feMerge> 
        <feMergeNode in="coloredBlur"/>
        <feMergeNode in="SourceGraphic"/>
      </feMerge>
    </filter>
  </defs>
  
  <!-- Outer Ring -->
  <circle cx="60" cy="60" r="55" fill="url(#goldGradient)" filter="url(#glow)" opacity="0.9"/>
  
  <!-- Inner Circle -->
  <circle cx="60" cy="60" r="45" fill="url(#innerGradient)" opacity="0.7"/>
  
  <!-- Geometric Pattern -->
  <g transform="translate(60,60)">
    <!-- Central Diamond -->
    <polygon points="0,-20 15,0 0,20 -15,0" fill="#FFD700" opacity="0.9"/>
    
    <!-- Surrounding Triangles -->
    <polygon points="0,-35 10,-20 -10,-20" fill="#FFA500" opacity="0.8"/>
    <polygon points="25,-10 35,0 25,10" fill="#FFA500" opacity="0.8" transform="rotate(90)"/>
    <polygon points="0,35 -10,20 10,20" fill="#FFA500" opacity="0.8" transform="rotate(180)"/>
    <polygon points="-25,10 -35,0 -25,-10" fill="#FFA500" opacity="0.8" transform="rotate(270)"/>
    
    <!-- Corner Accents -->
    <circle cx="20" cy="-20" r="3" fill="#FFFF99" opacity="0.9"/>
    <circle cx="20" cy="20" r="3" fill="#FFFF99" opacity="0.9"/>
    <circle cx="-20" cy="20" r="3" fill="#FFFF99" opacity="0.9"/>
    <circle cx="-20" cy="-20" r="3" fill="#FFFF99" opacity="0.9"/>
    
    <!-- Central Highlight -->
    <circle cx="0" cy="0" r="5" fill="#FFFFFF" opacity="0.6"/>
  </g>
  
  <!-- Outer Decorative Elements -->
  <g opacity="0.6">
    <path d="M 30 15 L 35 10 L 40 15 L 35 20 Z" fill="#FFD700"/>
    <path d="M 85 30 L 90 25 L 95 30 L 90 35 Z" fill="#FFD700"/>
    <path d="M 90 85 L 95 80 L 100 85 L 95 90 Z" fill="#FFD700"/>
    <path d="M 35 90 L 40 85 L 45 90 L 40 95 Z" fill="#FFD700"/>
  </g>
</svg>