<svg width="32" height="32" viewBox="0 0 32 32" xmlns="http://www.w3.org/2000/svg">
  <defs>
    <linearGradient id="goldGradient" x1="0%" y1="0%" x2="100%" y2="100%">
      <stop offset="0%" style="stop-color:#FFD700;stop-opacity:1" />
      <stop offset="50%" style="stop-color:#FFA500;stop-opacity:1" />
      <stop offset="100%" style="stop-color:#B8860B;stop-opacity:1" />
    </linearGradient>
    <linearGradient id="shadowGradient" x1="0%" y1="0%" x2="100%" y2="100%">
      <stop offset="0%" style="stop-color:#8B4513;stop-opacity:0.8" />
      <stop offset="100%" style="stop-color:#654321;stop-opacity:0.9" />
    </linearGradient>
  </defs>
  
  <!-- Background -->
  <rect width="32" height="32" fill="transparent"/>
  
  <!-- Main Shield Shape -->
  <path d="M16 2 L16 2 C20 2 24 4 26 8 L26 20 C26 24 22 28 16 30 C10 28 6 24 6 20 L6 8 C8 4 12 2 16 2 Z" fill="url(#goldGradient)" stroke="url(#shadowGradient)" stroke-width="0.5"/>
  
  <!-- Inner V Pattern - Top -->
  <path d="M16 6 L20 12 L16 18 L12 12 Z" fill="#FFFF99" opacity="0.9"/>
  
  <!-- Inner V Pattern - Middle -->
  <path d="M16 10 L18 14 L16 18 L14 14 Z" fill="#FFFFFF" opacity="0.8"/>
  
  <!-- Inner V Pattern - Bottom -->
  <path d="M16 14 L17 16 L16 18 L15 16 Z" fill="#FFD700" opacity="0.9"/>
  
  <!-- Highlight -->
  <ellipse cx="16" cy="8" rx="2" ry="1" fill="#FFFFFF" opacity="0.6"/>
</svg>